{"title":"Citadel (2012) BDRip [russian]","uid":8146536,"size":1574215680,"categoryP":"video","categoryS":"movies","magnet":"?xt=urn:btih:be78a4bd460021d0ce5d1bee4541db6113ccb760&amp;dn=Citadel+%282012%29+BDRip+%5Brussian%5D&amp;tr=udp%3A%2F%2Ftracker.openbittorrent.com%3A80&amp;tr=udp%3A%2F%2Fopen.demonii.com%3A1337&amp;tr=udp%3A%2F%2Ftracker.coppersurfer.tk%3A6969&amp;tr=udp%3A%2F%2Fexodus.desync.com%3A6969","seeders":4,"leechers":0,"uploader":"yfjfrj","files":-1,"time":1360940324,"description":"Plot: An agoraphobic father teams up with a renegade priest to save his daughter from the clutches of a gang of twisted feral children who committed an act of violence against his family years earlier. \n\nMediaInfo 0.7.61:\nGeneral\nComplete name                            : D:2012_Citadel.avi\nFormat                                   : AVI\nFormat/Info                              : Audio Video Interleave\nFile size                                : 1.47 GiB\nDuration                                 : 1h 24mn\nOverall bit rate                         : 2 487 Kbps\nWriting application                      : VirtualDubMod 1.5.10.2 (build 2540/release)\nWriting library                          : VirtualDubMod build 2540/release\n\nVideo\nID                                       : 0\nFormat                                   : MPEG-4 Visual\nFormat profile                           : Advanced Simple@L5\nFormat settings, BVOP                    : 2\nFormat settings, QPel                    : No\nFormat settings, GMC                     : No warppoints\nFormat settings, Matrix                  : Custom\nCodec ID                                 : XVID\nCodec ID/Hint                            : XviD\nDuration                                 : 1h 24mn\nBit rate                                 : 2 350 Kbps\nWidth                                    : 720 pixels\nHeight                                   : 400 pixels\nDisplay aspect ratio                     : 16:9\nFrame rate                               : 23.976 fps\nColor space                              : YUV\nChroma subsampling                       : 4:2:0\nBit depth                                : 8 bits\nScan type                                : Progressive\nCompression mode                         : Lossy\nBits/(Pixel*Frame)                       : 0.340\nStream size                              : 1.39 GiB (94%)\nWriting library                          : XviD 73\n\nAudio\nID                                       : 1\nFormat                                   : MPEG Audio\nFormat version                           : Version 1\nFormat profile                           : Layer 3\nMode                                     : Joint stereo\nMode extension                           : MS Stereo\nCodec ID                                 : 55\nCodec ID/Hint                            : MP3\nDuration                                 : 1h 24mn\nBit rate mode                            : Constant\nBit rate                                 : 128 Kbps\nChannel(s)                               : 2 channels\nSampling rate                            : 48.0 KHz\nCompression mode                         : Lossy\nStream size                              : 77.3 MiB (5%)\nAlignment                                : Aligned on interleaves\nInterleave, duration                     : 42 ms (1.00 video frame)\nInterleave, preload duration             : 504 ms\n\nScreenshots: &lt;a href=&quot;\nhttp://img195.imageshack.us/img195/6269/grab27d.png&quot; rel=&quot;nofollow&quot; target=&quot;_NEW&quot;&gt;\nhttp://img195.imageshack.us/img195/6269/grab27d.png&lt;/a&gt; &lt;a href=&quot;\nhttp://img13.imageshack.us/img13/6140/grab28v.png&quot; rel=&quot;nofollow&quot; target=&quot;_NEW&quot;&gt;\nhttp://img13.imageshack.us/img13/6140/grab28v.png&lt;/a&gt; &lt;a href=&quot;\nhttp://img687.imageshack.us/img687/290/grab29x.png&quot; rel=&quot;nofollow&quot; target=&quot;_NEW&quot;&gt;\nhttp://img687.imageshack.us/img687/290/grab29x.png&lt;/a&gt; &lt;a href=&quot;\nhttp://img534.imageshack.us/img534/3146/grab30n.png&quot; rel=&quot;nofollow&quot; target=&quot;_NEW&quot;&gt;\nhttp://img534.imageshack.us/img534/3146/grab30n.png&lt;/a&gt; &lt;a href=&quot;\nhttp://img651.imageshack.us/img651/5343/grab31m.png&quot; rel=&quot;nofollow&quot; target=&quot;_NEW&quot;&gt;\nhttp://img651.imageshack.us/img651/5343/grab31m.png&lt;/a&gt; &lt;a href=&quot;\nhttp://img254.imageshack.us/img254/5674/grab32qw.png&quot; rel=&quot;nofollow&quot; target=&quot;_NEW&quot;&gt;\nhttp://img254.imageshack.us/img254/5674/grab32qw.png&lt;/a&gt; &lt;a href=&quot;\nhttp://img35.imageshack.us/img35/1043/grab33p.png&quot; rel=&quot;nofollow&quot; target=&quot;_NEW&quot;&gt;\nhttp://img35.imageshack.us/img35/1043/grab33p.png&lt;/a&gt; &lt;a href=&quot;\nhttp://img507.imageshack.us/img507/3111/grab34.png&quot; rel=&quot;nofollow&quot; target=&quot;_NEW&quot;&gt;\nhttp://img507.imageshack.us/img507/3111/grab34.png&lt;/a&gt; &lt;a href=&quot;\nhttp://img577.imageshack.us/img577/1112/grab35z.png&quot; rel=&quot;nofollow&quot; target=&quot;_NEW&quot;&gt;\nhttp://img577.imageshack.us/img577/1112/grab35z.png&lt;/a&gt; &lt;a href=&quot;\nhttp://img59.imageshack.us/img59/5371/grab36d.png&quot; rel=&quot;nofollow&quot; target=&quot;_NEW&quot;&gt;\nhttp://img59.imageshack.us/img59/5371/grab36d.png&lt;/a&gt; &lt;a href=&quot;\nhttp://img221.imageshack.us/img221/9606/grab37t.png&quot; rel=&quot;nofollow&quot; target=&quot;_NEW&quot;&gt;\nhttp://img221.imageshack.us/img221/9606/grab37t.png&lt;/a&gt; &lt;a href=&quot;\nhttp://img266.imageshack.us/img266/225/grab38f.png&quot; rel=&quot;nofollow&quot; target=&quot;_NEW&quot;&gt;\nhttp://img266.imageshack.us/img266/225/grab38f.png&lt;/a&gt;","torrent":{"xt":"urn:btih:be78a4bd460021d0ce5d1bee4541db6113ccb760","amp;dn":"Citadel+%282012%29+BDRip+%5Brussian%5D","amp;tr":["udp%3A%2F%2Ftracker.openbittorrent.com%3A80","udp%3A%2F%2Fopen.demonii.com%3A1337","udp%3A%2F%2Ftracker.coppersurfer.tk%3A6969","udp%3A%2F%2Fexodus.desync.com%3A6969"],"infoHash":"be78a4bd460021d0ce5d1bee4541db6113ccb760","infoHashBuffer":{"type":"Buffer","data":[190,120,164,189,70,0,33,208,206,93,27,238,69,65,219,97,19,204,183,96]},"announce":[],"urlList":[]}}